<svg xmlns="http://www.w3.org/2000/svg" width="56" height="56"><defs><linearGradient id="a" x1="0%" y1="7.585%" y2="100%"><stop offset="0%" stop-color="#C3FFF4"/><stop offset="100%" stop-color="#C7E5FF"/></linearGradient><linearGradient id="b" x1="100%" x2="0%" y1="100%" y2="7.585%"><stop offset="0%" stop-color="#006DCC"/><stop offset="100%" stop-color="#33A0FF"/></linearGradient></defs><g fill="none" fill-rule="evenodd"><path fill="url(#a)" d="M0 0h56v56H0z"/><path fill="url(#b)" d="M1 0h7v8H0V1a1 1 0 0 1 1-1zm7 8h8v8H8V8zm8-8h7a1 1 0 0 1 1 1v7h-8V0zM0 16h8v8H1a1 1 0 0 1-1-1v-7zm16 0h8v7a1 1 0 0 1-1 1h-7v-8z" transform="translate(16 16)"/></g></svg>